<svg width="20" height="20" viewBox="0 0 20 20" fill="none" xmlns="http://www.w3.org/2000/svg">
<path d="M0 10.009C0 8.22082 0.450045 6.55566 1.35014 5.0135C2.25023 3.47135 3.46835 2.25023 5.0045 1.35014C6.54065 0.450045 8.20282 0 9.991 0C11.7912 0 13.4593 0.450045 14.9955 1.35014C16.5317 2.25023 17.7498 3.46835 18.6499 5.0045C19.55 6.54065 20 8.20882 20 10.009C20 11.8092 19.55 13.4773 18.6499 15.0135C17.7498 16.5497 16.5317 17.7648 14.9955 18.6589C13.4593 19.553 11.7912 20 9.991 20C8.19082 20 6.52565 19.553 4.9955 18.6589C3.46535 17.7648 2.25023 16.5497 1.35014 15.0135C0.450045 13.4773 0 11.8092 0 10.009ZM8.55086 3.47435C10.219 3.67837 11.6202 4.41644 12.7543 5.68857C13.8884 6.9607 14.4554 8.45485 14.4554 10.171C14.4554 11.7672 13.9574 13.1743 12.9613 14.3924C11.9652 15.6106 10.6991 16.3876 9.16292 16.7237C9.54696 16.7717 9.82298 16.7957 9.991 16.7957C11.8632 16.7957 13.4653 16.1326 14.7975 14.8065C16.1296 13.4803 16.7957 11.8812 16.7957 10.009C16.7957 8.16082 16.1296 6.58266 14.7975 5.27453C13.4653 3.9664 11.8632 3.31233 9.991 3.31233C9.49895 3.31233 9.0189 3.36634 8.55086 3.47435Z" fill="white"/>
</svg>
