<svg width="17" height="17" viewBox="0 0 17 17" fill="none" xmlns="http://www.w3.org/2000/svg">
<path d="M17 10H14.82C14.65 10.7 14.38 11.35 14.01 11.93L15.55 13.47L13.45 15.57L11.91 14.03C11.33 14.39 10.68 14.66 10 14.82V17H7V14.82C6.32 14.66 5.67 14.39 5.09 14.03L3.55 15.57L1.43 13.45L2.97 11.91C2.61 11.33 2.34 10.68 2.18 10H0V7.03H2.17C2.33 6.33 2.61 5.68 2.97 5.09L1.43 3.55L3.53 1.45L5.07 2.99C5.65 2.62 6.31 2.35 7 2.18V0H10V2.18C10.68 2.34 11.33 2.61 11.91 2.97L13.45 1.43L15.57 3.55L14.03 5.09C14.39 5.68 14.67 6.33 14.83 7.03H17V10ZM8.5 11.5C10.16 11.5 11.5 10.16 11.5 8.5C11.5 6.84 10.16 5.5 8.5 5.5C6.84 5.5 5.5 6.84 5.5 8.5C5.5 10.16 6.84 11.5 8.5 11.5Z" fill="white"/>
</svg>
