<svg width="20" height="20" viewBox="0 0 20 20" fill="none" xmlns="http://www.w3.org/2000/svg">
<path d="M3 10.5H3.83333H3ZM17.1667 10.5H18H17.1667ZM10.5 3V3.83333V3ZM10.5 17.1667V18V17.1667ZM15.8033 5.19667L15.2142 5.78583L15.8033 5.19667ZM5.78583 15.2142L5.19667 15.8033L5.78583 15.2142ZM5.19667 5.19667L5.78583 5.78583L5.19667 5.19667ZM15.2142 15.2142L15.8033 15.8033L15.2142 15.2142ZM10.5 7.16667C11.3841 7.16667 12.2319 7.51786 12.857 8.14298C13.4821 8.7681 13.8333 9.61595 13.8333 10.5C13.8333 11.3841 13.4821 12.2319 12.857 12.857C12.2319 13.4821 11.3841 13.8333 10.5 13.8333C9.61594 13.8333 8.7681 13.4821 8.14298 12.857C7.51786 12.2319 7.16667 11.3841 7.16667 10.5C7.16667 9.61595 7.51786 8.7681 8.14298 8.14298C8.7681 7.51786 9.61594 7.16667 10.5 7.16667V7.16667Z" stroke="white" stroke-width="1.66667" stroke-linecap="round" stroke-linejoin="round"/>
</svg>
